<?xml version="1.0" encoding="iso-8859-1"?>
<!DOCTYPE svg PUBLIC "-//W3C//DTD SVG 1.1//EN" "http://www.w3.org/Graphics/SVG/1.1/DTD/svg11.dtd">
<svg 
 version="1.1" xmlns="http://www.w3.org/2000/svg" xmlns:xlink="http://www.w3.org/1999/xlink" x="0px" y="0px" width="512px"
	 height="512px" viewBox="0 0 512 512" enable-background="new 0 0 512 512" xml:space="preserve"
><g id="b75708d097f2188dff6617b0f00bfb81"><g></g><path display="inline" d="M298.588,292.396c0,23.479-19.104,42.579-42.588,42.579s-42.575-19.101-42.575-42.579
		c0-23.479,19.092-42.579,42.575-42.579S298.588,268.916,298.588,292.396z M511.5,328.99c0,52.473-42.542,95.015-95.014,95.015
		l-320.174,0.398c-52.917,0-95.813-42.895-95.813-95.813c0-42.725,27.966-78.899,66.586-91.254
		c-1.771-8.476-2.711-17.25-2.711-26.249c0-70.554,57.196-123.491,127.75-123.491c44.051,0,82.892,20.639,105.859,53.313
		c12.671-6.846,27.4-10.729,43.183-10.729c47.037,0,85.166,33.871,85.166,80.908c0,8.03-1.189,15.77-3.269,23.139
		C472.468,237.607,511.5,278.73,511.5,328.99z M341.162,283.879c0-4.703-5.081-8.517-11.349-8.517h-7.826
		c-1.626-6.305-4.142-12.256-7.381-17.72l5.506-5.514c4.441-4.429,5.339-10.729,2.017-14.052l-12.047-12.048
		c-3.323-3.322-9.619-2.424-14.061,2.009l-5.568,5.589c-5.381-3.164-11.228-5.618-17.416-7.215v-7.826
		c0-6.271-3.813-11.357-8.512-11.357h-17.038c-4.703,0-8.512,5.086-8.512,11.357v7.826c-6.201,1.597-12.039,4.047-17.416,7.203
		l-5.581-5.577c-4.441-4.433-10.729-5.331-14.052-2.009l-12.047,12.048c-3.323,3.322-2.424,9.623,2.009,14.052l5.506,5.514
		c-3.24,5.46-5.755,11.415-7.381,17.72h-7.827c-6.267,0-11.349,3.813-11.349,8.517v17.033c0,4.703,5.082,8.513,11.349,8.513h7.827
		c1.597,6.2,4.05,12.039,7.215,17.416l-5.581,5.58c-4.441,4.438-5.34,10.729-2.017,14.052l12.047,12.048
		c3.323,3.322,9.623,2.424,14.064-2.005l5.506-5.522c5.473,3.256,11.419,5.76,17.728,7.386v7.826c0,6.271,3.809,11.357,8.512,11.357
		h17.038c4.699,0,8.512-5.086,8.512-11.357v-7.826c6.309-1.626,12.256-4.142,17.716-7.386l5.519,5.522
		c4.429,4.429,10.729,5.327,14.052,2.005l12.047-12.048c3.322-3.322,2.425-9.614-2.017-14.052l-5.581-5.58
		c3.165-5.377,5.618-11.216,7.215-17.416h7.826c6.268,0,11.349-3.81,11.349-8.513V283.879z"></path></g></svg>