<?xml version="1.0" encoding="iso-8859-1"?>
<!DOCTYPE svg PUBLIC "-//W3C//DTD SVG 1.1//EN" "http://www.w3.org/Graphics/SVG/1.1/DTD/svg11.dtd">
<svg 
 version="1.1" xmlns="http://www.w3.org/2000/svg" xmlns:xlink="http://www.w3.org/1999/xlink" x="0px" y="0px" width="512px"
	 height="512px" viewBox="0 0 512 512" enable-background="new 0 0 512 512" xml:space="preserve"
><g id="5151e0c8492e5103c096af88a50767d5"><g></g><path display="inline" d="M432.207,253.274V67.158l-0.124,0.057c0.041-0.551,0.124-1.098,0.124-1.652
		c0-35.932-86.778-65.063-193.828-65.063C131.33,0.5,44.552,29.631,44.552,65.563v346.408h0.059
		c1.122,32.141,71.636,58.671,163.607,63.496c27.381,22.515,62.43,36.033,100.645,36.033c87.587,0,158.586-70.999,158.586-158.586
		C467.448,315.16,454.232,280.507,432.207,253.274z M112.811,436.75c-32.405-10.152-33.833-20.938-35.955-24.779v-78.509
		c18.383,9.3,43.726,16.892,73.485,22.006c0.568,35.819,13.002,68.737,33.555,95.024C157.527,447.79,133.223,443.145,112.811,436.75
		z M151.646,332.357c-13.997-2.491-27.071-5.586-38.834-9.275c-32.405-10.146-33.833-20.938-35.955-24.771v-80.059
		c26.515,13.41,67.445,23.315,115.362,27.252C170.567,269.002,155.961,299.061,151.646,332.357z M396.966,361.725
		c0,4.866-5.259,8.81-11.743,8.81h-8.094c-1.646,6.408-4.192,12.452-7.462,18.017l5.775,5.771c4.591,4.588,5.52,11.096,2.078,14.534
		l-12.458,12.462c-3.441,3.441-9.953,2.512-14.537-2.072l-5.706-5.71c-5.651,3.355-11.805,5.958-18.33,7.641v8.091
		c0,6.491-3.943,11.75-8.81,11.75h-17.621c-4.866,0-8.811-5.259-8.811-11.75v-8.091c-6.525-1.683-12.679-4.278-18.329-7.641
		l-5.706,5.71c-4.592,4.584-11.103,5.514-14.544,2.072l-12.459-12.459c-3.441-3.441-2.512-9.949,2.086-14.537l5.768-5.771
		c-3.27-5.564-5.809-11.608-7.461-18.017h-8.095c-6.483,0-11.742-3.943-11.742-8.81v-17.621c0-4.866,5.259-8.811,11.742-8.811h8.095
		c1.68-6.525,4.281-12.682,7.641-18.329l-5.706-5.706c-4.585-4.585-5.514-11.096-2.072-14.537l12.458-12.461
		c3.442-3.441,9.946-2.512,14.537,2.077l5.775,5.771c5.562-3.27,11.604-5.806,18.013-7.458v-8.093
		c0-6.487,3.944-11.747,8.811-11.747h17.621c4.866,0,8.81,5.26,8.81,11.747v8.093c6.401,1.652,12.452,4.195,18.014,7.465
		l5.768-5.778c4.591-4.589,11.103-5.519,14.544-2.077l12.459,12.461c3.441,3.441,2.512,9.952-2.079,14.537l-5.706,5.706
		c3.359,5.65,5.961,11.804,7.641,18.329h8.094c6.484,0,11.743,3.944,11.743,8.811V361.725z M399.904,183.096
		c-2.006,3.624-3.424,13.448-30.87,23.081c-18.557-7.62-38.869-11.849-60.172-11.849c-34.388,0-66.195,10.982-92.179,29.578
		c-38.948-1.512-75.232-7.06-103.873-16.032c-32.405-10.151-33.833-20.94-35.955-24.777V101.52
		c34.72,17.54,94.09,29.105,161.523,29.105c67.434,0,126.801-11.565,161.525-29.105V183.096z M363.947,91.112
		c-33.899,10.621-78.494,16.47-125.568,16.47c-47.073,0-91.668-5.849-125.568-16.47c-34.914-10.936-44.676-22.625-45.61-25.55
		c0.934-2.925,10.7-14.615,45.614-25.552c33.903-10.621,78.495-16.468,125.564-16.468c47.07,0,91.662,5.847,125.565,16.468
		c34.914,10.937,44.681,22.626,45.614,25.552C408.625,68.488,398.861,80.177,363.947,91.112z M352.921,352.914
		c0,24.29-19.762,44.052-44.052,44.052c-24.298,0-44.052-19.762-44.052-44.052c0-24.291,19.754-44.052,44.052-44.052
		C333.159,308.862,352.921,328.623,352.921,352.914z"></path></g></svg>