<?xml version="1.0" encoding="iso-8859-1"?>
<!DOCTYPE svg PUBLIC "-//W3C//DTD SVG 1.1//EN" "http://www.w3.org/Graphics/SVG/1.1/DTD/svg11.dtd">
<svg 
 version="1.1" xmlns="http://www.w3.org/2000/svg" xmlns:xlink="http://www.w3.org/1999/xlink" x="0px" y="0px" width="512px"
	 height="512px" viewBox="0 0 512 512" enable-background="new 0 0 512 512" xml:space="preserve"
><g id="5151e0c8492e5103c096af88a52a5435"><g></g><path display="inline" d="M467.065,245.534V73.323c0-21.779-17.774-39.497-39.609-39.497H40.118
		C18.274,33.826,0.5,51.543,0.5,73.323v276.485c0,21.779,17.774,39.497,39.618,39.497h212.389
		c18.304,51.768,67.65,88.869,125.688,88.869c73.63,0,133.305-59.679,133.305-133.305
		C511.5,305.391,494.329,269.938,467.065,245.534z M171.019,215.961l-81.953,81.71c-2.578,2.577-5.962,3.861-9.338,3.861
		s-6.761-1.284-9.338-3.861c-5.155-5.134-5.155-13.474,0-18.616l78.846-78.607l-77.179-54.971
		c-5.937-4.222-7.308-12.449-3.072-18.364c4.244-5.915,12.488-7.286,18.425-3.06l146.375,104.249l146.383-104.249
		c5.927-4.227,14.172-2.855,18.416,3.06c4.243,5.915,2.863,14.142-3.072,18.364l-77.18,54.971l17.938,17.887
		c-9.021,2.986-17.613,6.9-25.662,11.647l-14.06-14.021l-62.764,44.699L171.019,215.961z M378.195,455.957
		c-61.254,0-111.087-49.833-111.087-111.088c0-61.254,49.833-111.086,111.087-111.086s111.087,49.833,111.087,111.086
		C489.282,406.124,439.449,455.957,378.195,455.957z M442.379,330.06h-6.805c-1.41-5.485-3.597-10.657-6.422-15.409l4.795-4.795
		c3.862-3.854,4.644-9.329,1.749-12.22l-10.471-10.475c-2.895-2.891-8.366-2.109-12.229,1.744l-4.847,4.86
		c-4.674-2.752-9.76-4.887-15.141-6.275v-6.804c0-5.454-3.314-9.876-7.407-9.876h-14.81c-4.092,0-7.407,4.422-7.407,9.876v6.804
		c-5.386,1.389-10.467,3.52-15.141,6.267l-4.855-4.852c-3.857-3.854-9.325-4.635-12.22-1.744l-10.471,10.475
		c-2.895,2.891-2.113,8.366,1.74,12.22l4.795,4.795c-2.82,4.747-5.008,9.924-6.422,15.409h-6.805c-5.45,0-9.867,3.315-9.867,7.402
		v14.814c0,4.088,4.417,7.403,9.867,7.403h6.805c1.389,5.39,3.523,10.467,6.274,15.145l-4.852,4.852
		c-3.862,3.857-4.643,9.329-1.753,12.219l10.476,10.476c2.89,2.89,8.366,2.109,12.224-1.744l4.795-4.8
		c4.752,2.829,9.924,5.008,15.409,6.423v6.804c0,5.454,3.315,9.876,7.407,9.876h14.81c4.093,0,7.407-4.422,7.407-9.876v-6.804
		c5.485-1.415,10.658-3.603,15.405-6.423l4.799,4.8c3.854,3.854,9.325,4.634,12.22,1.744l10.471-10.476
		c2.895-2.89,2.113-8.361-1.749-12.219l-4.851-4.852c2.746-4.678,4.886-9.755,6.27-15.145h6.805c5.45,0,9.872-3.315,9.872-7.403
		v-14.814C452.251,333.375,447.829,330.06,442.379,330.06z M378.195,381.897c-20.421,0-37.027-16.611-37.027-37.028
		c0-20.416,16.606-37.027,37.027-37.027s37.032,16.611,37.032,37.027C415.228,365.286,398.616,381.897,378.195,381.897z"></path></g></svg>